<svg width="120" height="48" viewBox="0 0 120 48" fill="none" xmlns="http://www.w3.org/2000/svg">
<path d="M5.64569 47.2289C8.76372 47.2289 11.2914 44.7012 11.2914 41.5832C11.2914 38.4652 8.76372 35.9375 5.64569 35.9375C2.52766 35.9375 0 38.4652 0 41.5832C0 44.7012 2.52766 47.2289 5.64569 47.2289Z" fill="#1ABF34"/>
<path fill-rule="evenodd" clip-rule="evenodd" d="M6.95272 17.6977C13.3041 17.6977 19.0041 20.2491 23.1841 24.4291C27.3641 28.609 29.8612 34.2547 29.8612 40.6061H17.8098C17.8098 37.6204 16.6155 34.9062 14.607 32.8976C12.5984 30.889 9.93842 29.6948 6.89844 29.6948C6.95272 29.749 6.95272 17.6977 6.95272 17.6977Z" fill="#1C66DC"/>
<path fill-rule="evenodd" clip-rule="evenodd" d="M41.9085 17.6977L54.7741 32.409L67.2598 17.6977H81.1569V40.6061H69.1055V34.0919L63.5684 40.6061H45.9256L25.9485 17.6977H41.9085Z" fill="#1C66DC"/>
<path fill-rule="evenodd" clip-rule="evenodd" d="M78.2793 0C84.6307 0 90.3307 2.55142 94.5106 6.7314C98.6906 10.9114 101.242 16.6113 101.242 22.9627H89.1907C89.1907 19.977 87.9964 17.2628 85.9878 15.2542C84.0335 13.2999 81.3193 12.0514 78.2793 12.0514V0Z" fill="#1C66DC"/>
<path fill-rule="evenodd" clip-rule="evenodd" d="M96.6802 28.6654C99.6659 28.6654 102.38 27.4711 104.389 25.4625C106.343 23.5082 107.592 20.794 107.592 17.754H119.643C119.643 24.1054 117.092 29.8053 112.912 33.9853C108.786 38.111 103.032 40.7167 96.6802 40.7167V28.6654Z" fill="#1C66DC"/>
</svg>
