<svg width="19" height="19" viewBox="0 0 19 19" fill="none" xmlns="http://www.w3.org/2000/svg">
<path d="M18.5144 2.35389L17.0472 0.580555C16.7622 0.221667 16.3294 0 15.8333 0H3.16667C2.67056 0 2.23778 0.221667 1.94222 0.580555L0.485556 2.35389C0.179444 2.71278 0 3.18778 0 3.69444V16.8889C0 18.05 0.95 19 2.11111 19H16.8889C18.05 19 19 18.05 19 16.8889V3.69444C19 3.18778 18.8206 2.71278 18.5144 2.35389ZM9.13056 14.9361L3.69444 9.5H7.38889V7.38889H11.6111V9.5H15.3056L9.86944 14.9361C9.66889 15.1367 9.33111 15.1367 9.13056 14.9361ZM2.23778 2.11111L3.09278 1.05556H15.7594L16.7517 2.11111H2.23778Z" fill="#676A7E"/>
</svg>
