<svg width="19" height="16" viewBox="0 0 19 16" fill="none" xmlns="http://www.w3.org/2000/svg">
<path d="M1.96032 0C0.874603 0 0 0.892308 0 2V14C0 15.1077 0.874603 16 1.96032 16H17.0397C18.1254 16 19 15.1077 19 14V11.4769C19 11.2153 18.804 11.0153 18.5476 11.0153C18.2913 11.0153 18.0952 11.2153 18.0952 11.4769V14C18.0952 14.6 17.6278 15.0769 17.0397 15.0769H5.57937C7.29841 9.63077 11.7469 7.47692 18.4572 8.84615C18.4874 8.84615 18.5175 8.86148 18.5476 8.86148C18.804 8.86148 19 8.66148 19 8.39994V2C19 0.892308 18.1254 0 17.0397 0H1.96032ZM1.96032 0.923077H17.0397C17.6278 0.923077 18.0952 1.4 18.0952 2V7.83083C11.1437 6.58468 6.39377 9.13846 4.64456 15.0769H1.96032C1.37222 15.0769 0.904762 14.6 0.904762 14V2C0.904762 1.4 1.37222 0.923077 1.96032 0.923077ZM5.27778 2.76923C4.59921 2.76923 3.95079 3.04615 3.46825 3.53846C2.47302 4.55385 2.47302 6.21532 3.46825 7.24609C3.95079 7.7384 4.59921 8.01532 5.27778 8.01532C5.95635 8.01532 6.60476 7.7384 7.0873 7.24609C8.08254 6.23071 8.08254 4.56923 7.0873 3.53846C6.60476 3.04615 5.95635 2.76923 5.27778 2.76923ZM5.27778 3.69231C5.73016 3.69231 6.13742 3.86142 6.45409 4.1845C7.1025 4.84603 7.1025 5.9232 6.45409 6.58474C6.13742 6.90781 5.71508 7.07692 5.27778 7.07692C4.84048 7.07692 4.41814 6.90781 4.10147 6.58474C3.45306 5.9232 3.45306 4.84603 4.10147 4.1845C4.41814 3.86142 4.8254 3.69231 5.27778 3.69231Z" fill="#373D54"/>
</svg>
