<svg width="18" height="20" viewBox="0 0 18 20" fill="none" xmlns="http://www.w3.org/2000/svg">
<path d="M12.0039 15V16C12.0039 17.6569 10.6608 19 9.00391 19C7.34705 19 6.00391 17.6569 6.00391 16V15M12.0039 15H6.00391M12.0039 15H15.5944C15.9769 15 16.1691 15 16.324 14.9478C16.6199 14.848 16.8514 14.6156 16.9512 14.3198C17.0036 14.1643 17.0036 13.9715 17.0036 13.5859C17.0036 13.4172 17.0034 13.3329 16.9902 13.2524C16.9653 13.1004 16.9063 12.9563 16.8165 12.8312C16.769 12.7651 16.7087 12.7048 16.5897 12.5858L16.2002 12.1963C16.0745 12.0706 16.0039 11.9001 16.0039 11.7224V8C16.0039 4.134 12.8699 0.999991 9.00391 1C5.13792 1.00001 2.00391 4.13401 2.00391 8V11.7224C2.00391 11.9002 1.93315 12.0706 1.80747 12.1963L1.41797 12.5858C1.29866 12.7051 1.23895 12.765 1.19141 12.8312C1.10156 12.9564 1.04205 13.1004 1.01711 13.2524C1.00391 13.3329 1.00391 13.4172 1.00391 13.586C1.00391 13.9715 1.00391 14.1642 1.05636 14.3197C1.15616 14.6156 1.3887 14.848 1.68457 14.9478C1.83947 15 2.03092 15 2.41346 15H6.00391" stroke="#2F3244" stroke-width="1.81071" stroke-linecap="round" stroke-linejoin="round"/>
</svg>
