<svg width="19" height="23" viewBox="0 0 19 23" fill="none" xmlns="http://www.w3.org/2000/svg">
<path d="M9.07266 16.8641C9.62266 16.8641 10.0935 16.6682 10.4852 16.2766C10.8768 15.8849 11.0727 15.4141 11.0727 14.8641C11.0727 14.3141 10.8768 13.8432 10.4852 13.4516C10.0935 13.0599 9.62266 12.8641 9.07266 12.8641C8.52266 12.8641 8.05182 13.0599 7.66016 13.4516C7.26849 13.8432 7.07266 14.3141 7.07266 14.8641C7.07266 15.4141 7.26849 15.8849 7.66016 16.2766C8.05182 16.6682 8.52266 16.8641 9.07266 16.8641ZM3.37266 22.7141C2.50632 22.7141 1.76474 22.4056 1.14791 21.7888C0.531073 21.1718 0.222656 20.4302 0.222656 19.5641V10.1641C0.222656 9.2979 0.531073 8.55631 1.14791 7.93931C1.76474 7.32248 2.50632 7.01406 3.37266 7.01406H8.14766V5.73906C8.14766 4.2224 8.66849 2.9349 9.71016 1.87656C10.7518 0.818229 12.0227 0.289062 13.5227 0.289062C14.8227 0.289062 15.9477 0.684896 16.8977 1.47656C17.8477 2.26823 18.4643 3.25573 18.7477 4.43906C18.831 4.7724 18.7268 5.0724 18.4352 5.33906C18.1435 5.60573 17.7751 5.73906 17.3299 5.73906C16.8846 5.73906 16.5179 5.6474 16.2299 5.46406C15.9417 5.28073 15.6893 4.9974 15.4727 4.61406C15.2893 4.28073 15.0268 4.00156 14.6852 3.77656C14.3435 3.55156 13.956 3.43906 13.5227 3.43906C12.8893 3.43906 12.3602 3.66265 11.9352 4.10981C11.5102 4.55715 11.2977 5.10023 11.2977 5.73906V7.01406H14.7727C15.6388 7.01406 16.3804 7.32248 16.9974 7.93931C17.6142 8.55631 17.9227 9.2979 17.9227 10.1641V19.5641C17.9227 20.4302 17.6142 21.1718 16.9974 21.7888C16.3804 22.4056 15.6388 22.7141 14.7727 22.7141H3.37266Z" fill="#676A7E"/>
</svg>
