<svg width="16" height="22" viewBox="0 0 16 22" fill="none" xmlns="http://www.w3.org/2000/svg">
<path d="M2.87016 21.0927C2.09046 21.0927 1.42303 20.8151 0.867881 20.2599C0.312731 19.7046 0.0351562 19.0372 0.0351562 18.2577V9.79766C0.0351562 9.01811 0.312731 8.35068 0.867881 7.79538C1.42303 7.24023 2.09046 6.96266 2.87016 6.96266H3.16266V5.81516C3.16266 4.45016 3.63141 3.29141 4.56891 2.33891C5.50641 1.38641 6.65016 0.910156 8.00016 0.910156C9.35016 0.910156 10.4939 1.38641 11.4314 2.33891C12.3689 3.29141 12.8377 4.45016 12.8377 5.81516V6.96266H13.1302C13.9097 6.96266 14.5771 7.24023 15.1324 7.79538C15.6876 8.35068 15.9652 9.01811 15.9652 9.79766V18.2577C15.9652 19.0372 15.6876 19.7046 15.1324 20.2599C14.5771 20.8151 13.9097 21.0927 13.1302 21.0927H2.87016ZM8.00016 15.8277C8.49516 15.8277 8.91891 15.6514 9.27141 15.2989C9.62391 14.9464 9.80016 14.5227 9.80016 14.0277C9.80016 13.5327 9.62391 13.1089 9.27141 12.7564C8.91891 12.4039 8.49516 12.2277 8.00016 12.2277C7.50516 12.2277 7.08141 12.4039 6.72891 12.7564C6.37641 13.1089 6.20016 13.5327 6.20016 14.0277C6.20016 14.5227 6.37641 14.9464 6.72891 15.2989C7.08141 15.6514 7.50516 15.8277 8.00016 15.8277ZM5.99766 6.96266H10.0027V5.81516C10.0027 5.24021 9.81141 4.75143 9.42891 4.34883C9.04641 3.94638 8.57016 3.74516 8.00016 3.74516C7.43016 3.74516 6.95391 3.94638 6.57141 4.34883C6.18891 4.75143 5.99766 5.24021 5.99766 5.81516V6.96266Z" fill="#676A7E"/>
</svg>
