<svg width="23" height="29" viewBox="0 0 23 29" fill="none" xmlns="http://www.w3.org/2000/svg">
<path d="M1.29102 25.4378V6.04195C1.29102 4.40847 1.29102 3.59111 1.60891 2.9672C1.88854 2.4184 2.33441 1.97253 2.88322 1.6929C3.50713 1.375 4.32448 1.375 5.95797 1.375H19.3746C20.1914 1.375 20.6003 1.375 20.9123 1.53395C21.1867 1.67376 21.4084 1.8967 21.5482 2.1711C21.7071 2.48306 21.7077 2.89173 21.7077 3.70848V20.9168C21.7077 21.7336 21.7071 22.1414 21.5482 22.4533C21.4084 22.7277 21.187 22.9514 20.9126 23.0912C20.6009 23.25 20.1925 23.25 19.3773 23.25H4.57227C2.76008 23.25 1.29102 24.7191 1.29102 26.5313C1.29102 27.1353 1.7807 27.625 2.38477 27.625H17.919C18.7341 27.625 19.1426 27.625 19.4542 27.4662C19.7286 27.3264 19.95 27.1029 20.0898 26.8285C20.2488 26.5165 20.2493 26.1084 20.2493 25.2917V23.25" stroke="white" stroke-width="2" stroke-linecap="round" stroke-linejoin="round"/>
</svg>
