<svg width="27" height="30" viewBox="0 0 27 30" fill="none" xmlns="http://www.w3.org/2000/svg">
<path d="M1.83398 10.668H25.1673M1.83398 10.668V23.5016C1.83398 25.1351 1.83398 25.9514 2.15188 26.5753C2.43151 27.1241 2.87738 27.5708 3.42619 27.8504C4.04949 28.168 4.86585 28.168 6.49614 28.168H20.5052C22.1354 28.168 22.9506 28.168 23.5739 27.8504C24.1227 27.5708 24.5701 27.1241 24.8497 26.5753C25.1673 25.952 25.1673 25.1368 25.1673 23.5065V10.668M1.83398 10.668V9.50159C1.83398 7.8681 1.83398 7.05075 2.15188 6.42684C2.43151 5.87803 2.87738 5.43216 3.42619 5.15253C4.0501 4.83464 4.86745 4.83464 6.50094 4.83464H7.66732M25.1673 10.668V9.4968C25.1673 7.8665 25.1673 7.05014 24.8497 6.42684C24.5701 5.87803 24.1227 5.43216 23.5739 5.15253C22.95 4.83464 22.1344 4.83464 20.5009 4.83464H19.334M7.66732 4.83464H19.334M7.66732 4.83464V1.91797M19.334 4.83464V1.91797M17.8757 16.5013L12.0423 22.3346L9.12565 19.418" stroke="white" stroke-width="2" stroke-linecap="round" stroke-linejoin="round"/>
</svg>
