<svg width="21" height="15" viewBox="0 0 21 15" fill="none" xmlns="http://www.w3.org/2000/svg">
<path d="M7.4006 10.3239L17.5527 0.576923C17.9533 0.192308 18.4277 0 18.9759 0C19.5241 0 19.9985 0.192308 20.3991 0.576923C20.7997 0.961538 21 1.417 21 1.94332C21 2.46964 20.7997 2.9251 20.3991 3.30972L8.8238 14.4231C8.42319 14.8077 7.9488 15 7.4006 15C6.85241 15 6.37801 14.8077 5.97741 14.4231L0.600904 9.26113C0.200301 8.87652 0 8.42105 0 7.89474C0 7.36842 0.200301 6.91296 0.600904 6.52834C1.00151 6.14372 1.4759 5.95142 2.0241 5.95142C2.57229 5.95142 3.04669 6.14372 3.44729 6.52834L7.4006 10.3239Z" fill="#676A7E"/>
</svg>
