<svg width="21" height="21" viewBox="0 0 21 21" fill="none" xmlns="http://www.w3.org/2000/svg">
<path d="M11.8556 8.45514L10.6608 7.28337C10.4464 7.06893 10.186 6.96171 9.87965 6.96171C9.5733 6.96171 9.31291 7.06893 9.09847 7.28337C8.88403 7.49781 8.78063 7.75438 8.78829 8.05306C8.79595 8.35175 8.907 8.60831 9.12144 8.82276L10.8217 10.546C11.1127 10.837 11.4573 10.9825 11.8556 10.9825C12.2538 10.9825 12.5985 10.837 12.8895 10.546L16.5197 6.89278C16.7341 6.67834 16.8414 6.42177 16.8414 6.12309C16.8414 5.8244 16.7341 5.56783 16.5197 5.35339C16.3053 5.13895 16.0449 5.03173 15.7385 5.03173C15.4322 5.03173 15.1718 5.13895 14.9573 5.35339L11.8556 8.45514ZM7.62801 16.267C6.81619 16.267 6.13074 15.9874 5.57166 15.4283C5.01258 14.8693 4.73304 14.1838 4.73304 13.372V2.89497C4.73304 2.08315 5.01258 1.3977 5.57166 0.838621C6.13074 0.27954 6.81619 0 7.62801 0H18.105C18.9168 0 19.6023 0.27954 20.1614 0.838621C20.7205 1.3977 21 2.08315 21 2.89497V13.372C21 14.1838 20.7205 14.8693 20.1614 15.4283C19.6023 15.9874 18.9168 16.267 18.105 16.267H7.62801ZM2.89497 21C2.08315 21 1.3977 20.7205 0.838621 20.1614C0.27954 19.6023 0 18.9168 0 18.105V6.18052C0 5.78228 0.141685 5.44147 0.425055 5.1581C0.708424 4.87473 1.04923 4.73304 1.44748 4.73304C1.84573 4.73304 2.18654 4.87473 2.46991 5.1581C2.75328 5.44147 2.89497 5.78228 2.89497 6.18052V18.105H14.8195C15.2177 18.105 15.5585 18.2467 15.8419 18.5301C16.1253 18.8135 16.267 19.1543 16.267 19.5525C16.267 19.9508 16.1253 20.2916 15.8419 20.5749C15.5585 20.8583 15.2177 21 14.8195 21H2.89497Z" fill="#676A7E"/>
</svg>
