<svg width="17" height="17" viewBox="0 0 17 17" fill="none" xmlns="http://www.w3.org/2000/svg">
<path d="M1.75397 0C0.78254 0 0 0.78254 0 1.75397V3.64286V15.246C0 16.2175 0.78254 17 1.75397 17H15.246C16.2175 17 17 16.2175 17 15.246V1.75397C17 0.78254 16.2175 0 15.246 0H1.75397ZM1.75397 0.809524H15.246C15.7722 0.809524 16.1905 1.22778 16.1905 1.75397V3.77778H0.809524V1.75397C0.809524 1.22778 1.22778 0.809524 1.75397 0.809524ZM2.29365 1.88889C2.06429 1.88889 1.88889 2.06429 1.88889 2.29365C1.88889 2.52302 2.06429 2.69841 2.29365 2.69841H2.83333C3.0627 2.69841 3.2381 2.52302 3.2381 2.29365C3.2381 2.06429 3.0627 1.88889 2.83333 1.88889H2.29365ZM4.45238 1.88889C4.22302 1.88889 4.04762 2.06429 4.04762 2.29365C4.04762 2.52302 4.22302 2.69841 4.45238 2.69841H4.99206C5.22143 2.69841 5.39683 2.52302 5.39683 2.29365C5.39683 2.06429 5.22143 1.88889 4.99206 1.88889H4.45238ZM0.809524 4.5873H16.1905V15.246C16.1905 15.7722 15.7722 16.1905 15.246 16.1905H1.75397C1.22778 16.1905 0.809524 15.7722 0.809524 15.246V4.5873ZM9.5928 6.98926C9.43343 6.99558 9.28934 7.09693 9.22862 7.25884L7.00243 13.2357C6.92148 13.4515 7.02926 13.681 7.24513 13.7619C7.28561 13.7754 7.3127 13.7888 7.35318 13.7888C7.52857 13.8023 7.70392 13.708 7.77138 13.5326L9.99757 7.54212C10.0785 7.32624 9.97074 7.09683 9.75487 7.01587C9.7009 6.99564 9.64593 6.98715 9.5928 6.98926ZM10.9236 8.49157C10.8207 8.49663 10.7195 8.54053 10.6453 8.62148C10.4969 8.78339 10.5103 9.03963 10.6722 9.18804L11.9674 10.3755L10.6722 11.5626C10.5103 11.7245 10.4969 11.9809 10.6453 12.1563C10.7262 12.2507 10.8341 12.2912 10.942 12.2912C11.0365 12.2912 11.1309 12.2644 11.2119 12.1834L12.8443 10.6856C12.9253 10.6047 12.9793 10.4968 12.9793 10.3889C12.9793 10.281 12.9253 10.1596 12.8443 10.0922L11.2119 8.59434C11.1309 8.52013 11.0264 8.48651 10.9236 8.49157ZM6.07644 8.50501C5.97356 8.49995 5.8691 8.53384 5.78815 8.60804L4.15566 10.0922C4.07471 10.1731 4.02074 10.281 4.02074 10.3889C4.02074 10.4968 4.07471 10.6181 4.15566 10.6856L5.78815 12.1834C5.8691 12.2509 5.96354 12.2912 6.05799 12.2912C6.16593 12.2912 6.27376 12.2507 6.35471 12.1563C6.50312 11.9944 6.48974 11.7381 6.32783 11.5897L5.03265 10.3889L6.32783 9.20148C6.48974 9.05307 6.50312 8.79683 6.35471 8.63492C6.2805 8.55397 6.17931 8.51007 6.07644 8.50501Z" fill="#373D54"/>
</svg>
