<svg width="27" height="27" viewBox="0 0 27 27" fill="none" xmlns="http://www.w3.org/2000/svg">
<path d="M1.83398 12.7029V20.502C1.83398 22.1355 1.83398 22.9528 2.15188 23.5767C2.43151 24.1255 2.87738 24.5713 3.42619 24.851C4.04949 25.1685 4.86585 25.1685 6.49614 25.1685H20.5052C22.1354 25.1685 22.9506 25.1685 23.5739 24.851C24.1227 24.5713 24.5701 24.1255 24.8497 23.5767C25.1673 22.9534 25.1673 22.1374 25.1673 20.5071V12.7029C25.1673 11.9237 25.1666 11.5339 25.0719 11.1713C24.9879 10.8499 24.8501 10.5458 24.6636 10.271C24.4531 9.96096 24.1604 9.70382 23.574 9.19068L16.574 3.06568C15.4852 2.11298 14.9408 1.63686 14.3281 1.45568C13.7882 1.29602 13.2128 1.29602 12.6729 1.45568C12.0607 1.63673 11.5171 2.11239 10.4299 3.06366L3.42761 9.19068C2.84117 9.70382 2.54863 9.96096 2.33813 10.271C2.1516 10.5458 2.0127 10.8499 1.92873 11.1713C1.83398 11.5339 1.83398 11.9237 1.83398 12.7029Z" stroke="white" stroke-width="2" stroke-linecap="round" stroke-linejoin="round"/>
</svg>
