<svg width="17" height="17" viewBox="0 0 17 17" fill="none" xmlns="http://www.w3.org/2000/svg">
<path d="M3.77778 0C3.54841 0 3.37302 0.175397 3.37302 0.404762C3.37302 0.634127 3.54841 0.809524 3.77778 0.809524H15.246C15.7722 0.809524 16.1905 1.22778 16.1905 1.75397V13.2222C16.1905 13.4516 16.3659 13.627 16.5952 13.627C16.8246 13.627 17 13.4516 17 13.2222V1.75397C17 0.78254 16.2175 0 15.246 0H3.77778ZM1.75397 1.88889C0.78254 1.88889 0 2.67143 0 3.64286V5.53175V15.246C0 16.2175 0.78254 17 1.75397 17H13.3571C14.3286 17 15.1111 16.2175 15.1111 15.246V3.64286C15.1111 2.67143 14.3286 1.88889 13.3571 1.88889H1.75397ZM1.75397 2.69841H13.3571C13.8833 2.69841 14.3016 3.11667 14.3016 3.64286V5.66667H0.809524V3.64286C0.809524 3.11667 1.22778 2.69841 1.75397 2.69841ZM2.29365 3.77778C2.06429 3.77778 1.88889 3.95317 1.88889 4.18254C1.88889 4.4119 2.06429 4.5873 2.29365 4.5873H2.83333C3.0627 4.5873 3.2381 4.4119 3.2381 4.18254C3.2381 3.95317 3.0627 3.77778 2.83333 3.77778H2.29365ZM4.45238 3.77778C4.22302 3.77778 4.04762 3.95317 4.04762 4.18254C4.04762 4.4119 4.22302 4.5873 4.45238 4.5873H4.99206C5.22143 4.5873 5.39683 4.4119 5.39683 4.18254C5.39683 3.95317 5.22143 3.77778 4.99206 3.77778H4.45238ZM0.809524 6.47619H14.3016V15.246C14.3016 15.7722 13.8833 16.1905 13.3571 16.1905H1.75397C1.22778 16.1905 0.809524 15.7722 0.809524 15.246V6.47619Z" fill="#373D54"/>
</svg>
