<svg width="5" height="17" viewBox="0 0 5 17" fill="none" xmlns="http://www.w3.org/2000/svg">
<path d="M1.5 14.5C1.5 15.0523 1.94772 15.5 2.5 15.5C3.05228 15.5 3.5 15.0523 3.5 14.5C3.5 13.9477 3.05228 13.5 2.5 13.5C1.94772 13.5 1.5 13.9477 1.5 14.5Z" stroke="#676A7E" stroke-width="2" stroke-linecap="round" stroke-linejoin="round"/>
<path d="M1.5 8.5C1.5 9.05228 1.94772 9.5 2.5 9.5C3.05228 9.5 3.5 9.05228 3.5 8.5C3.5 7.94772 3.05228 7.5 2.5 7.5C1.94772 7.5 1.5 7.94772 1.5 8.5Z" stroke="#676A7E" stroke-width="2" stroke-linecap="round" stroke-linejoin="round"/>
<path d="M1.5 2.5C1.5 3.05228 1.94772 3.5 2.5 3.5C3.05228 3.5 3.5 3.05228 3.5 2.5C3.5 1.94772 3.05228 1.5 2.5 1.5C1.94772 1.5 1.5 1.94772 1.5 2.5Z" stroke="#676A7E" stroke-width="2" stroke-linecap="round" stroke-linejoin="round"/>
</svg>
