<svg width="19" height="19" viewBox="0 0 19 19" fill="none" xmlns="http://www.w3.org/2000/svg">
<path fill-rule="evenodd" clip-rule="evenodd" d="M9.5 17.3758C9.5 17.1438 9.59219 16.9212 9.75628 16.7571C9.92038 16.593 10.1429 16.5008 10.375 16.5008H17.375C17.6071 16.5008 17.8296 16.593 17.9937 16.7571C18.1578 16.9212 18.25 17.1438 18.25 17.3758C18.25 17.6079 18.1578 17.8305 17.9937 17.9945C17.8296 18.1586 17.6071 18.2508 17.375 18.2508H10.375C10.1429 18.2508 9.92038 18.1586 9.75628 17.9945C9.59219 17.8305 9.5 17.6079 9.5 17.3758ZM17.1773 6.08833C18.586 4.67433 18.5256 2.81758 17.4739 1.68008C17.2092 1.3939 16.8895 1.1641 16.534 1.00442C16.1784 0.84475 15.7942 0.758495 15.4045 0.750827C14.5741 0.731577 13.7149 1.04833 12.9213 1.71245C12.9009 1.72934 12.8813 1.74715 12.8626 1.76583L1.51475 13.1592C1.02447 13.6517 0.749452 14.3184 0.750001 15.0133V16.4947C0.750001 17.4581 1.5305 18.2508 2.5035 18.2508H3.97263C4.31815 18.2508 4.66026 18.1825 4.97934 18.0499C5.29841 17.9173 5.58818 17.723 5.832 17.4782L17.1773 6.08833ZM14.0561 4.0697C13.9754 3.98613 13.8789 3.91947 13.7721 3.87361C13.6654 3.82776 13.5505 3.80362 13.4344 3.80261C13.3182 3.8016 13.203 3.82374 13.0954 3.86773C12.9879 3.91173 12.8902 3.9767 12.808 4.05886C12.7259 4.14101 12.6609 4.23871 12.6169 4.34624C12.5729 4.45378 12.5508 4.569 12.5518 4.68518C12.5528 4.80136 12.5769 4.91618 12.6228 5.02293C12.6686 5.12968 12.7353 5.22624 12.8189 5.30695L13.6939 6.18195C13.7746 6.26552 13.8711 6.33218 13.9779 6.37804C14.0847 6.4239 14.1995 6.44804 14.3157 6.44905C14.4318 6.45006 14.5471 6.42792 14.6546 6.38392C14.7621 6.33992 14.8598 6.27495 14.942 6.1928C15.0241 6.11064 15.0891 6.01295 15.1331 5.90541C15.1771 5.79788 15.1992 5.68266 15.1982 5.56648C15.1972 5.45029 15.1731 5.33548 15.1272 5.22872C15.0814 5.12197 15.0147 5.02542 14.9311 4.9447L14.0561 4.0697Z" fill="#676A7E"/>
</svg>
