<svg width="29" height="29" viewBox="0 0 29 29" fill="none" xmlns="http://www.w3.org/2000/svg">
<path d="M1.375 10.125V25.2917C1.375 26.1084 1.375 26.5165 1.53395 26.8285C1.67376 27.1029 1.8967 27.3264 2.1711 27.4662C2.48275 27.625 2.89093 27.625 3.70608 27.625H18.8751M21.7917 8.66667L15.9583 14.5L13.0417 11.5833M7.20833 17.1253V6.04195C7.20833 4.40847 7.20833 3.59111 7.52623 2.9672C7.80586 2.4184 8.25173 1.97253 8.80054 1.6929C9.42445 1.375 10.2418 1.375 11.8753 1.375H22.9586C24.5921 1.375 25.4084 1.375 26.0323 1.6929C26.5811 1.97253 27.0278 2.4184 27.3074 2.9672C27.6253 3.59111 27.6253 4.40788 27.6253 6.04134L27.6253 17.1247C27.6253 18.7582 27.6253 19.5749 27.3074 20.1989C27.0278 20.7477 26.5811 21.1945 26.0323 21.4741C25.409 21.7917 24.5938 21.7917 22.9635 21.7917H11.8705C10.2402 21.7917 9.42384 21.7917 8.80054 21.4741C8.25173 21.1945 7.80586 20.7478 7.52623 20.199C7.20833 19.5751 7.20833 18.7588 7.20833 17.1253Z" stroke="white" stroke-width="2" stroke-linecap="round" stroke-linejoin="round"/>
</svg>
