<svg width="33" height="27" viewBox="0 0 33 27" fill="none" xmlns="http://www.w3.org/2000/svg">
<path d="M6.29102 10.5845V19.3508C6.29102 19.8742 6.29102 20.136 6.37072 20.3671C6.4412 20.5714 6.55624 20.7575 6.70749 20.912C6.87853 21.0866 7.11264 21.2037 7.58085 21.4378L15.4558 25.3753C15.8385 25.5666 16.0298 25.6622 16.2304 25.6999C16.4082 25.7332 16.5905 25.7332 16.7683 25.6999C16.9689 25.6622 17.1602 25.5666 17.5428 25.3753L25.4178 21.4378C25.8861 21.2036 26.1202 21.0866 26.2912 20.912C26.4425 20.7575 26.5575 20.5714 26.628 20.3671C26.7077 20.136 26.7077 19.8742 26.7077 19.3508V10.5845M1.91602 8.39701L15.9776 1.36621C16.1689 1.27056 16.2646 1.22273 16.3649 1.20391C16.4538 1.18724 16.5449 1.18724 16.6338 1.20391C16.7341 1.22273 16.8298 1.27056 17.0211 1.36621L31.0827 8.39701L17.0211 15.4278C16.8298 15.5235 16.7341 15.5713 16.6338 15.5901C16.5449 15.6068 16.4538 15.6068 16.3649 15.5901C16.2646 15.5713 16.1689 15.5235 15.9776 15.4278L1.91602 8.39701Z" stroke="white" stroke-width="2" stroke-linecap="round" stroke-linejoin="round"/>
</svg>
