<svg width="21" height="17" viewBox="0 0 21 17" fill="none" xmlns="http://www.w3.org/2000/svg">
<path fill-rule="evenodd" clip-rule="evenodd" d="M6.758 0.717045C8.24105 0.0430914 9.89446 -0.162238 11.4973 0.128491C13.1002 0.41922 14.5761 1.19216 15.728 2.34404L18.73 5.34605L18.82 5.43605C19.227 5.84105 19.578 6.19204 19.79 6.59204C20.0208 7.02584 20.1415 7.50968 20.1415 8.00105C20.1415 8.49241 20.0208 8.97625 19.79 9.41005C19.578 9.81005 19.227 10.16 18.82 10.566L18.73 10.656L18.678 10.708C18.4894 10.8902 18.2368 10.991 17.9746 10.9887C17.7124 10.9864 17.4616 10.8813 17.2762 10.6959C17.0908 10.5105 16.9856 10.2596 16.9833 9.99745C16.981 9.73525 17.0818 9.48265 17.264 9.29405L17.316 9.24205C17.864 8.69305 17.973 8.56905 18.026 8.47105C18.103 8.32636 18.1433 8.16496 18.1433 8.00105C18.1433 7.83713 18.103 7.67573 18.026 7.53104C17.973 7.43304 17.864 7.30804 17.316 6.76104L14.314 3.75804C13.45 2.89416 12.3429 2.3145 11.1407 2.0965C9.93846 1.8785 8.69835 2.03254 7.586 2.53804C7.34576 2.64089 7.07481 2.64562 6.83113 2.5512C6.58746 2.45678 6.39042 2.27072 6.28221 2.03285C6.17399 1.79498 6.16319 1.5242 6.25211 1.27847C6.34104 1.03274 6.52262 0.830575 6.758 0.717045ZM0.554 0.517045C0.716881 0.307844 0.956175 0.17189 1.21927 0.139073C1.48236 0.106257 1.74772 0.179265 1.957 0.342045L19.957 14.342C20.0639 14.4215 20.1538 14.5215 20.2215 14.6362C20.2892 14.7509 20.3333 14.8779 20.3512 15.0099C20.3692 15.1418 20.3606 15.276 20.3259 15.4046C20.2913 15.5332 20.2313 15.6536 20.1495 15.7587C20.0677 15.8638 19.9658 15.9515 19.8497 16.0167C19.7335 16.0818 19.6055 16.1231 19.4732 16.1382C19.3409 16.1532 19.2069 16.1416 19.0791 16.1042C18.9513 16.0667 18.8323 16.0041 18.729 15.92L15.769 13.617L15.728 13.657C14.9851 14.4 14.1032 14.9893 13.1326 15.3913C12.1619 15.7934 11.1216 16.0003 10.071 16.0003C9.02039 16.0003 7.98007 15.7934 7.00944 15.3913C6.03881 14.9893 5.15687 14.4 4.414 13.657L2.246 11.491C1.62 10.864 1.079 10.324 0.706 9.83305C0.304 9.30805 0 8.72305 0 8.00205C0 7.28205 0.304 6.69604 0.705 6.17104C1.079 5.68004 1.62 5.14004 2.246 4.51304L3.041 3.71904L0.729 1.92104C0.519799 1.75816 0.383845 1.51887 0.351029 1.25578C0.318212 0.992682 0.39122 0.727325 0.554 0.518045V0.517045ZM10.929 9.85305L12.617 11.167C11.9149 11.7099 11.0521 12.0039 10.1645 12.0026C9.27699 12.0013 8.41508 11.7049 7.7145 11.16C7.01392 10.6151 6.51446 9.85264 6.29477 8.99272C6.07508 8.13279 6.14763 7.22421 6.501 6.41005L8.191 7.72404C8.14191 8.0725 8.18562 8.42774 8.31772 8.7539C8.44983 9.08005 8.66565 9.36558 8.9434 9.58165C9.22115 9.79772 9.55099 9.93669 9.89962 9.98451C10.2482 10.0323 10.6033 9.98634 10.929 9.85305Z" fill="#ABABAB"/>
</svg>
