<svg width="17" height="20" viewBox="0 0 17 20" fill="none" xmlns="http://www.w3.org/2000/svg">
<path d="M1.5 7.92285C1.5 12.7747 5.74448 16.7869 7.62319 18.3252C7.89206 18.5454 8.02811 18.6568 8.22871 18.7132C8.38491 18.7572 8.6148 18.7572 8.771 18.7132C8.97197 18.6567 9.10707 18.5463 9.37695 18.3254C11.2557 16.7871 15.4999 12.7751 15.4999 7.9233C15.4999 6.08718 14.7625 4.32605 13.4497 3.02772C12.137 1.72939 10.3566 1 8.50008 1C6.64357 1 4.86301 1.7295 3.55025 3.02783C2.2375 4.32616 1.5 6.08674 1.5 7.92285Z" stroke="#2F3244" stroke-width="2" stroke-linecap="round" stroke-linejoin="round"/>
<path d="M6.5 7C6.5 8.10457 7.39543 9 8.5 9C9.60457 9 10.5 8.10457 10.5 7C10.5 5.89543 9.60457 5 8.5 5C7.39543 5 6.5 5.89543 6.5 7Z" stroke="#2F3244" stroke-width="2" stroke-linecap="round" stroke-linejoin="round"/>
</svg>
