<svg width="17" height="15" viewBox="0 0 17 15" fill="none" xmlns="http://www.w3.org/2000/svg">
<path d="M3.97522 0.000175585C3.73867 0.000175585 3.54642 0.225901 3.54642 0.483872V5.51419C3.54642 5.64317 3.42815 5.70779 3.32466 5.6433C2.92549 5.38533 2.43755 5.2724 1.93489 5.3369C0.914785 5.48201 0.116441 6.38503 0.0129516 7.48141C-0.13489 8.99699 1.00349 10.2545 2.37842 10.1578C3.54636 10.0611 4.43347 8.9485 4.43347 7.67476V1.04818C4.95092 1.24166 5.32052 1.77379 5.32052 2.4026C5.32052 2.59608 5.42407 2.78937 5.60148 2.85386C5.91194 2.99897 6.20757 2.74112 6.20757 2.41866C6.20757 1.08043 5.2023 -0.0159476 3.97522 0.000175585ZM15.0313 1.97432C14.9089 1.97735 14.786 1.99139 14.664 2.01558L10.2732 2.96691C9.37138 3.17651 8.72088 4.03085 8.72088 5.03049V10.3512C8.72088 10.4801 8.6026 10.5448 8.49911 10.4803C8.09994 10.2223 7.61201 10.1094 7.10934 10.1739C6.10402 10.319 5.29089 11.2059 5.18741 12.3184C5.03956 13.834 6.17794 15.0915 7.55287 14.9948C8.72082 14.898 9.60792 13.8015 9.60792 12.5278V7.33624L16.113 5.91727V8.73883C16.113 8.86782 15.9947 8.93244 15.8912 8.86794C15.492 8.60997 15.0041 8.49705 14.5014 8.56154C13.4961 8.70665 12.683 9.59355 12.5795 10.7061C12.4316 12.2216 13.57 13.4792 14.9449 13.3824C16.1129 13.2857 17 12.1892 17 10.9155V4.0631C17 3.33756 16.6601 2.66044 16.0835 2.27349C15.7619 2.05582 15.3986 1.96526 15.0313 1.97432ZM15.1029 2.92944C15.3323 2.93548 15.5512 3.0234 15.7286 3.1927C15.9652 3.4023 16.113 3.72451 16.113 4.0631V4.91776L9.60792 6.33673V5.03049C9.60792 4.49843 9.96269 4.03111 10.4358 3.91824L14.871 2.95085C14.9486 2.93473 15.0264 2.92742 15.1029 2.92944ZM2.21585 6.28823C2.95506 6.28823 3.54642 6.93316 3.54642 7.73932C3.54642 8.54548 2.95506 9.19041 2.21585 9.19041C1.47664 9.19041 0.885274 8.54548 0.885274 7.73932C0.885274 6.93316 1.47664 6.28823 2.21585 6.28823ZM14.7824 9.51287C15.5216 9.51287 16.113 10.1578 16.113 10.964C16.113 11.7701 15.5216 12.4151 14.7824 12.4151C14.0432 12.4151 13.4518 11.7701 13.4518 10.964C13.4518 10.1578 14.0432 9.51287 14.7824 9.51287ZM7.3903 11.1252C8.12951 11.1252 8.72088 11.7701 8.72088 12.5763C8.72088 13.3824 8.12951 14.0274 7.3903 14.0274C6.65109 14.0274 6.05973 13.3824 6.05973 12.5763C6.05973 11.7701 6.65109 11.1252 7.3903 11.1252Z" fill="#373D54"/>
</svg>
