<svg width="14" height="18" viewBox="0 0 14 18" fill="none" xmlns="http://www.w3.org/2000/svg">
<path d="M1.71698 0C0.766038 0 0 0.828571 0 1.85714V16.1429C0 17.1714 0.766038 18 1.71698 18C8.49245 18 14 12.0429 14 4.71429V1.85714C14 0.828571 13.234 0 12.283 0H1.71698ZM1.71698 0.857143H12.283C12.7981 0.857143 13.2075 1.3 13.2075 1.85714V4.71429C13.2075 11.5714 8.0566 17.1429 1.71698 17.1429C1.20189 17.1429 0.792453 16.7 0.792453 16.1429V1.85714C0.792453 1.3 1.20189 0.857143 1.71698 0.857143ZM5.01887 4.28571C4.79434 4.28571 4.62264 4.47143 4.62264 4.71429C4.62264 4.95714 4.79434 5.14286 5.01887 5.14286H8.98113C9.20566 5.14286 9.37736 4.95714 9.37736 4.71429C9.37736 4.47143 9.20566 4.28571 8.98113 4.28571H5.01887ZM3.69811 8.57143C3.47358 8.57143 3.30189 8.75714 3.30189 9C3.30189 9.24286 3.47358 9.42857 3.69811 9.42857H10.3019C10.5264 9.42857 10.6981 9.24286 10.6981 9C10.6981 8.75714 10.5264 8.57143 10.3019 8.57143H3.69811ZM3.69811 11.4286C3.47358 11.4286 3.30189 11.6143 3.30189 11.8571C3.30189 12.1 3.47358 12.2857 3.69811 12.2857H8.98113C9.20566 12.2857 9.37736 12.1 9.37736 11.8571C9.37736 11.6143 9.20566 11.4286 8.98113 11.4286H3.69811ZM13.6038 11.8571C13.3792 11.8571 13.2075 12.0429 13.2075 12.2857V16.1429C13.2075 16.7 12.7981 17.1429 12.283 17.1429H8.32076C8.09623 17.1429 7.92453 17.3286 7.92453 17.5714C7.92453 17.8143 8.09623 18 8.32076 18H12.283C13.234 18 14 17.1714 14 16.1429V12.2857C14 12.0429 13.8283 11.8571 13.6038 11.8571Z" fill="#373D54"/>
</svg>
