<svg width="26" height="22" viewBox="0 0 26 22" fill="none" xmlns="http://www.w3.org/2000/svg">
<path d="M13.0617 7.75819V20.4763M13.0617 7.75819C13.0617 5.66325 13.0617 4.61621 13.4694 3.81605C13.828 3.1122 14.3999 2.53977 15.1037 2.18114C15.9039 1.77344 16.9515 1.77344 19.0465 1.77344H22.2883C22.9867 1.77344 23.3361 1.77344 23.6028 1.90934C23.8374 2.02888 24.0277 2.21949 24.1472 2.4541C24.2831 2.72083 24.2836 3.07024 24.2836 3.76856V14.7411C24.2836 15.4394 24.2831 15.788 24.1472 16.0548C24.0277 16.2894 23.8378 16.4806 23.6032 16.6002C23.3367 16.7359 22.9881 16.7359 22.2911 16.7359H18.7591C17.588 16.7359 17.0014 16.7359 16.4699 16.8973C15.9994 17.0402 15.5625 17.2742 15.1826 17.5865C14.7535 17.9392 14.4283 18.4264 13.7787 19.4008L13.0617 20.4763M13.0617 7.75819C13.0617 5.66325 13.0615 4.61621 12.6538 3.81605C12.2952 3.1122 11.7229 2.53977 11.0191 2.18114C10.2189 1.77344 9.17118 1.77344 7.07623 1.77344H3.83436C3.13604 1.77344 2.78723 1.77344 2.52051 1.90934C2.2859 2.02888 2.09529 2.21949 1.97575 2.4541C1.83984 2.72083 1.83984 3.07024 1.83984 3.76856V14.7411C1.83984 15.4394 1.83984 15.788 1.97575 16.0548C2.09529 16.2894 2.2859 16.4806 2.52051 16.6002C2.78697 16.7359 3.13536 16.7359 3.83231 16.7359H7.36441C8.53549 16.7359 9.12087 16.7359 9.65237 16.8973C10.1229 17.0402 10.5619 17.2742 10.9418 17.5865C11.3692 17.9377 11.6923 18.4224 12.3366 19.3889L13.0617 20.4763" stroke="white" stroke-width="2" stroke-linecap="round" stroke-linejoin="round"/>
</svg>
