<svg width="34" height="33" viewBox="0 0 34 33" fill="none" xmlns="http://www.w3.org/2000/svg">
<path d="M16.6317 0.5625C12.4273 0.5625 8.22291 2.12159 5.02359 5.24019C-1.37505 11.4774 -1.37505 21.6336 5.02359 27.8708C8.22291 30.9894 12.4415 32.5625 16.6317 32.5625C20.822 32.5625 25.0406 30.9894 28.2399 27.8708C34.6385 21.6336 34.6385 11.4774 28.2399 5.24019C25.0406 2.12159 20.8362 0.5625 16.6317 0.5625ZM16.6317 2.20438C20.3973 2.20438 24.1631 3.61168 27.051 6.39911C32.7701 12.0016 32.7701 21.1094 27.051 26.7119C21.3035 32.3143 11.9604 32.3143 6.24125 26.7119C0.4938 21.1094 0.493358 12.0016 6.2125 6.39911C9.10038 3.61168 12.8662 2.20438 16.6317 2.20438ZM16.6317 10.4839C16.1504 10.4839 15.7824 10.8426 15.7824 11.3118V15.7275H11.2524C10.771 15.7275 10.403 16.0863 10.403 16.5555C10.403 17.0247 10.771 17.3834 11.2524 17.3834H15.7824V21.7992C15.7824 22.2683 16.1504 22.6271 16.6317 22.6271C17.1131 22.6271 17.4811 22.2683 17.4811 21.7992V17.3834H22.0111C22.4924 17.3834 22.8605 17.0247 22.8605 16.5555C22.8605 16.0863 22.4924 15.7275 22.0111 15.7275H17.4811V11.3118C17.4811 10.8426 17.1131 10.4839 16.6317 10.4839Z" fill="#1C66DC"/>
</svg>
