<svg width="23" height="21" viewBox="0 0 23 21" fill="none" xmlns="http://www.w3.org/2000/svg">
<path d="M6.97766 20.5C6.40955 20.5 5.92338 20.3079 5.51915 19.9237C5.11491 19.5395 4.9128 19.0774 4.9128 18.5374C4.9128 17.9974 5.11491 17.5353 5.51915 17.1511C5.92338 16.7669 6.40955 16.5748 6.97766 16.5748H14.516C15.6304 16.5748 16.5809 16.2061 17.3675 15.4688C18.1541 14.7316 18.5474 13.8333 18.5474 12.7741C18.5474 11.715 18.1541 10.8115 17.3675 10.0639C16.5809 9.3162 15.6304 8.94237 14.516 8.94237H7.33819L8.61644 10.1573C9.00975 10.5312 9.2064 10.9881 9.2064 11.528C9.2064 12.068 9.00975 12.5249 8.61644 12.8988C8.22313 13.2726 7.74242 13.4595 7.17431 13.4595C6.6062 13.4595 6.1255 13.2726 5.73219 12.8988L0.946955 8.38162C0.750301 8.1947 0.597349 7.97664 0.488097 7.72741C0.378845 7.47819 0.324219 7.22897 0.324219 6.97975C0.324219 6.73053 0.378845 6.48131 0.488097 6.23209C0.597349 5.98287 0.750301 5.7648 0.946955 5.57788L5.73219 1.06075C6.1255 0.686916 6.6062 0.5 7.17431 0.5C7.74242 0.5 8.22313 0.686916 8.61644 1.06075C9.00975 1.43458 9.2064 1.89148 9.2064 2.43146C9.2064 2.97144 9.00975 3.42835 8.61644 3.80218L7.33819 5.01713H14.516C16.7666 5.01713 18.6895 5.76999 20.2845 7.2757C21.8796 8.78141 22.6772 10.6038 22.6772 12.743C22.6772 14.8821 21.8796 16.7098 20.2845 18.2259C18.6895 19.742 16.7666 20.5 14.516 20.5H6.97766Z" fill="#676A7E"/>
</svg>
