<svg width="21" height="21" viewBox="0 0 21 21" fill="none" xmlns="http://www.w3.org/2000/svg">
<path d="M7.82307 4.72281C5.78307 7.01281 4.38307 10.3028 4.25307 10.6128L1.99307 9.64281C1.34307 9.36281 1.18307 8.51281 1.68307 8.01281L4.69307 5.00281C5.16307 4.53281 5.84307 4.32281 6.50307 4.45281L7.82307 4.72281ZM9.31307 14.8828C9.61307 15.1828 10.0531 15.2628 10.4331 15.0828C11.5931 14.5428 14.0831 13.2728 15.6931 11.6628C20.2831 7.07281 20.3231 3.33281 20.0531 1.73281C19.9831 1.33281 19.6631 1.01281 19.2631 0.942808C17.6631 0.672808 13.9231 0.712808 9.33307 5.30281C7.72307 6.91281 6.46307 9.40281 5.91307 10.5628C5.73307 10.9428 5.82307 11.3928 6.11307 11.6828L9.31307 14.8828ZM16.2831 13.1828C13.9931 15.2228 10.7031 16.6228 10.3931 16.7528L11.3631 19.0128C11.6431 19.6628 12.4931 19.8228 12.9931 19.3228L16.0031 16.3128C16.4731 15.8428 16.6831 15.1628 16.5531 14.5028L16.2831 13.1828ZM7.57307 15.7828C7.77307 16.8428 7.42307 17.8228 6.75307 18.4928C5.98307 19.2628 3.59307 19.8328 2.04307 20.1328C1.35307 20.2628 0.743073 19.6528 0.873073 18.9628C1.17307 17.4128 1.73307 15.0228 2.51307 14.2528C3.18307 13.5828 4.16307 13.2328 5.22307 13.4328C6.39307 13.6528 7.35307 14.6128 7.57307 15.7828ZM11.6331 7.37281C11.6331 6.27281 12.5331 5.37281 13.6331 5.37281C14.7331 5.37281 15.6331 6.27281 15.6331 7.37281C15.6331 8.47281 14.7331 9.37281 13.6331 9.37281C12.5331 9.37281 11.6331 8.47281 11.6331 7.37281Z" fill="#676A7E"/>
</svg>
