<svg width="17" height="17" viewBox="0 0 17 17" fill="none" xmlns="http://www.w3.org/2000/svg">
<path d="M12.681 7.10517L3.69355 16.0926C3.30699 16.4791 2.83867 16.6724 2.28857 16.6724C1.73847 16.6724 1.27015 16.4791 0.883592 16.0926C0.497036 15.706 0.303759 15.2377 0.303759 14.6876C0.303759 14.1375 0.497037 13.6692 0.883592 13.2826L9.871 4.29521H2.8684C2.30344 4.29521 1.82768 4.10194 1.44112 3.71538C1.05457 3.32883 0.86129 2.85307 0.86129 2.2881C0.876157 1.738 1.07687 1.26968 1.46342 0.883123C1.84998 0.496567 2.32574 0.30329 2.8907 0.30329L14.6658 0.303291C14.9334 0.303291 15.1936 0.355325 15.4463 0.459398C15.6991 0.563472 15.9146 0.704713 16.093 0.883123C16.2715 1.06153 16.4127 1.27711 16.5168 1.52986C16.6208 1.78261 16.6729 2.04279 16.6729 2.3104L16.6729 14.1301C16.6729 14.695 16.4833 15.1671 16.1042 15.5462C15.7251 15.9253 15.253 16.1149 14.6881 16.1149C14.1231 16.1149 13.6473 15.9216 13.2608 15.535C12.8742 15.1485 12.681 14.6727 12.681 14.1078L12.681 7.10517Z" fill="#676A7E"/>
</svg>
