<svg width="18" height="25" viewBox="0 0 18 25" fill="none" xmlns="http://www.w3.org/2000/svg">
<path d="M1 6.09896V18.7458C1 20.5606 1 21.4678 1.27216 22.0231C1.77659 23.0522 2.8821 23.6437 4.01823 23.4925C4.63121 23.411 5.38618 22.9077 6.89613 21.901L6.89975 21.8986C7.49825 21.4996 7.79753 21.3001 8.1106 21.1895C8.68561 20.9862 9.31301 20.9862 9.88802 21.1895C10.2017 21.3003 10.5022 21.5006 11.1031 21.9012C12.613 22.9079 13.3689 23.4108 13.9818 23.4923C15.118 23.6435 16.2234 23.0522 16.7279 22.0231C17 21.4678 17 20.5603 17 18.7458V6.09458C17 4.60402 17 3.85763 16.7096 3.28776C16.454 2.78599 16.045 2.37834 15.5432 2.12268C14.9728 1.83203 14.2271 1.83203 12.7336 1.83203H5.26693C3.77345 1.83203 3.02616 1.83203 2.45573 2.12268C1.95396 2.37834 1.54631 2.78599 1.29065 3.28776C1 3.85819 1 4.60549 1 6.09896Z" stroke="#2F3244" stroke-width="2" stroke-linecap="round" stroke-linejoin="round"/>
</svg>
