<svg width="33" height="31" viewBox="0 0 33 31" fill="none" xmlns="http://www.w3.org/2000/svg">
<path d="M28.6765 11.0114L28.1424 10.7143C28.0595 10.6681 28.0187 10.645 27.9787 10.621C27.5804 10.3824 27.2447 10.0528 26.9998 9.65849C26.9751 9.61881 26.9519 9.5772 26.9044 9.49496C26.857 9.41283 26.8329 9.3712 26.8109 9.33C26.5911 8.91974 26.4723 8.46254 26.4652 7.9972C26.4645 7.95042 26.4646 7.90262 26.4662 7.80759L26.4767 7.18742C26.4934 6.19498 26.5017 5.69723 26.3623 5.25051C26.2384 4.85373 26.0311 4.48825 25.7544 4.1781C25.4415 3.82752 25.0085 3.5774 24.1415 3.07781L23.4214 2.66283C22.5568 2.16462 22.1244 1.91544 21.6654 1.82044C21.2593 1.7364 20.8403 1.74029 20.4357 1.83112C19.979 1.93364 19.552 2.18932 18.6985 2.70039L18.6936 2.7027L18.1776 3.01167C18.0961 3.06052 18.0548 3.08515 18.0139 3.10788C17.608 3.33351 17.155 3.45827 16.6909 3.47317C16.6441 3.47467 16.5966 3.47467 16.5014 3.47467C16.4069 3.47467 16.3572 3.47467 16.3106 3.47317C15.8455 3.45821 15.3915 3.33277 14.985 3.10621C14.9441 3.08337 14.9036 3.05855 14.8218 3.00947L14.3025 2.69772C13.4432 2.18181 13.0128 1.92347 12.5537 1.82044C12.1474 1.72929 11.7269 1.72677 11.3194 1.8119C10.8592 1.90801 10.4267 2.15905 9.56161 2.66112L9.55776 2.66283L8.84659 3.07558L8.83872 3.0804C7.98145 3.57795 7.55178 3.82732 7.24157 4.17648C6.96629 4.48632 6.76054 4.85121 6.63738 5.24695C6.49818 5.69427 6.50559 6.1931 6.52237 7.19021L6.53279 7.80951C6.53437 7.90329 6.53711 7.94989 6.53642 7.99601C6.52952 8.46231 6.4091 8.92044 6.18872 9.33143C6.16693 9.37207 6.14345 9.41272 6.09655 9.49391C6.04962 9.57515 6.02689 9.61555 6.00256 9.65476C5.7565 10.0512 5.4193 10.3827 5.01854 10.6217C4.9789 10.6453 4.93712 10.6681 4.85503 10.7136L4.32775 11.0058C3.45047 11.4919 3.01193 11.7352 2.69282 12.0815C2.41053 12.3877 2.19728 12.7511 2.0671 13.1467C1.91995 13.594 1.92008 14.0955 1.92236 15.0985L1.92422 15.9183C1.92648 16.9146 1.92958 17.4124 2.07706 17.8566C2.20753 18.2497 2.41923 18.6108 2.69994 18.9153C3.01724 19.2594 3.45142 19.5012 4.32205 19.9855L4.84463 20.2762C4.93357 20.3257 4.97832 20.3501 5.02121 20.376C5.41834 20.6151 5.7529 20.9457 5.99686 21.3399C6.02321 21.3825 6.04852 21.4267 6.09911 21.5151C6.14908 21.6024 6.17464 21.646 6.19775 21.6898C6.41165 22.0947 6.52617 22.5447 6.53398 23.0026C6.53482 23.0521 6.5341 23.1021 6.5324 23.2027L6.52237 23.797C6.50548 24.7975 6.49812 25.2984 6.63815 25.7469C6.76202 26.1437 6.96907 26.5091 7.24584 26.8193C7.55869 27.1699 7.9924 27.4199 8.85941 27.9195L9.5794 28.3344C10.444 28.8326 10.8761 29.0815 11.3351 29.1765C11.7412 29.2605 12.1605 29.2572 12.5651 29.1664C13.0224 29.0638 13.4508 28.8072 14.3068 28.2947L14.8228 27.9857C14.9044 27.9368 14.9458 27.9123 14.9867 27.8896C15.3925 27.6639 15.8451 27.5385 16.3092 27.5236C16.3559 27.5221 16.4035 27.5221 16.4986 27.5221C16.594 27.5221 16.6415 27.5221 16.6884 27.5236C17.1535 27.5386 17.6088 27.6644 18.0153 27.891C18.0511 27.9109 18.0869 27.9325 18.1498 27.9703L18.6983 28.2996C19.5578 28.8156 19.9872 29.0731 20.4464 29.1762C20.8527 29.2673 21.2735 29.271 21.6811 29.1859C22.1411 29.0898 22.5745 28.8383 23.4391 28.3365L24.161 27.9175C25.0188 27.4197 25.4489 27.17 25.7592 26.8207C26.0345 26.5109 26.2405 26.1462 26.3637 25.7504C26.5019 25.3064 26.4935 24.8114 26.477 23.8287L26.4662 23.1877C26.4646 23.0939 26.4645 23.0473 26.4651 23.0012C26.472 22.5349 26.5905 22.0764 26.8109 21.6654C26.8326 21.6249 26.8563 21.5839 26.903 21.503C26.95 21.4217 26.9742 21.3812 26.9986 21.342C27.2446 20.9456 27.5822 20.6138 27.9829 20.3748C28.0221 20.3514 28.0624 20.3291 28.1425 20.2847L28.1453 20.2834L28.6726 19.9912C29.5499 19.5051 29.9892 19.2615 30.3084 18.9153C30.5906 18.609 30.8036 18.2462 30.9338 17.8505C31.0801 17.4059 31.0789 16.9072 31.0767 15.916L31.0748 15.0786C31.0725 14.0823 31.0713 13.5846 30.9238 13.1403C30.7933 12.7473 30.5805 12.3861 30.2998 12.0817C29.9828 11.7379 29.548 11.496 28.679 11.0126L28.6765 11.0114Z" stroke="white" stroke-width="2" stroke-linecap="round" stroke-linejoin="round"/>
<path d="M10.6667 15.4987C10.6667 18.7204 13.2783 21.3321 16.5 21.3321C19.7217 21.3321 22.3333 18.7204 22.3333 15.4987C22.3333 12.2771 19.7217 9.66539 16.5 9.66539C13.2783 9.66539 10.6667 12.2771 10.6667 15.4987Z" stroke="white" stroke-width="2" stroke-linecap="round" stroke-linejoin="round"/>
</svg>
