<svg width="17" height="21" viewBox="0 0 17 21" fill="none" xmlns="http://www.w3.org/2000/svg">
<path d="M1.64286 18.2778C1.64286 19.5 2.67143 20.5 3.92857 20.5H13.0714C14.3286 20.5 15.3571 19.5 15.3571 18.2778V7.16667C15.3571 5.94444 14.3286 4.94444 13.0714 4.94444H3.92857C2.67143 4.94444 1.64286 5.94444 1.64286 7.16667V18.2778ZM15.3571 1.61111H12.5L11.6886 0.822222C11.4829 0.622222 11.1857 0.5 10.8886 0.5H6.11143C5.81429 0.5 5.51714 0.622222 5.31143 0.822222L4.5 1.61111H1.64286C1.01429 1.61111 0.5 2.11111 0.5 2.72222C0.5 3.33333 1.01429 3.83333 1.64286 3.83333H15.3571C15.9857 3.83333 16.5 3.33333 16.5 2.72222C16.5 2.11111 15.9857 1.61111 15.3571 1.61111Z" fill="#DD4C1E"/>
</svg>
