<svg width="17" height="21" viewBox="0 0 17 21" fill="none" xmlns="http://www.w3.org/2000/svg">
<path d="M2.95537 8.44636H4.8719V14.4732C4.8719 15.1361 5.41432 15.6785 6.07727 15.6785H10.8987C11.5617 15.6785 12.1041 15.1361 12.1041 14.4732V8.44636H14.0206C15.0934 8.44636 15.6358 7.14457 14.8764 6.38519L9.3438 0.852569C8.87371 0.382477 8.11433 0.382477 7.64424 0.852569L2.11162 6.38519C1.35224 7.14457 1.8826 8.44636 2.95537 8.44636ZM0.0625 19.2946C0.0625 19.9576 0.604914 20.5 1.26786 20.5H15.7322C16.3952 20.5 16.9376 19.9576 16.9376 19.2946C16.9376 18.6317 16.3952 18.0893 15.7322 18.0893H1.26786C0.604914 18.0893 0.0625 18.6317 0.0625 19.2946Z" fill="#676A7E"/>
</svg>
