<svg width="29" height="25" viewBox="0 0 29 25" fill="none" xmlns="http://www.w3.org/2000/svg">
<path d="M27.625 23.1679C27.625 20.628 25.1901 18.4673 21.7917 17.6665M18.875 23.168C18.875 19.9463 14.9575 17.3346 10.125 17.3346C5.29251 17.3346 1.375 19.9463 1.375 23.168M18.875 12.9596C22.0967 12.9596 24.7083 10.348 24.7083 7.1263C24.7083 3.90464 22.0967 1.29297 18.875 1.29297M10.125 12.9596C6.90334 12.9596 4.29167 10.348 4.29167 7.1263C4.29167 3.90464 6.90334 1.29297 10.125 1.29297C13.3467 1.29297 15.9583 3.90464 15.9583 7.1263C15.9583 10.348 13.3467 12.9596 10.125 12.9596Z" stroke="white" stroke-width="2" stroke-linecap="round" stroke-linejoin="round"/>
</svg>
