<svg width="29" height="25" viewBox="0 0 29 25" fill="none" xmlns="http://www.w3.org/2000/svg">
<path d="M21.7917 23.168C21.7917 20.7517 18.5271 18.793 14.5 18.793C10.4729 18.793 7.20833 20.7517 7.20833 23.168M27.625 18.7935C27.625 16.9995 25.8253 15.4577 23.25 14.7826M1.375 18.7935C1.375 16.9995 3.17472 15.4577 5.75 14.7826M23.25 8.92896C24.1451 8.12786 24.7083 6.9637 24.7083 5.66797C24.7083 3.25172 22.7496 1.29297 20.3333 1.29297C19.2128 1.29297 18.1907 1.71421 17.4167 2.40698M5.75 8.92896C4.85495 8.12786 4.29167 6.9637 4.29167 5.66797C4.29167 3.25172 6.25042 1.29297 8.66667 1.29297C9.78718 1.29297 10.8093 1.71421 11.5833 2.40698M14.5 14.418C12.0838 14.418 10.125 12.4592 10.125 10.043C10.125 7.62672 12.0838 5.66797 14.5 5.66797C16.9162 5.66797 18.875 7.62672 18.875 10.043C18.875 12.4592 16.9162 14.418 14.5 14.418Z" stroke="white" stroke-width="2" stroke-linecap="round" stroke-linejoin="round"/>
</svg>
