<svg width="21" height="17" viewBox="0 0 21 17" fill="none" xmlns="http://www.w3.org/2000/svg">
<path d="M15.166 16C15.166 14.3431 12.9274 13 10.166 13C7.40459 13 5.16602 14.3431 5.16602 16M19.166 13.0004C19.166 11.7702 17.9319 10.7129 16.166 10.25M1.16602 13.0004C1.16602 11.7702 2.40011 10.7129 4.16602 10.25M16.166 6.23611C16.7798 5.68679 17.166 4.8885 17.166 4C17.166 2.34315 15.8229 1 14.166 1C13.3977 1 12.6968 1.28885 12.166 1.76389M4.16602 6.23611C3.55227 5.68679 3.16602 4.8885 3.16602 4C3.16602 2.34315 4.50916 1 6.16602 1C6.93437 1 7.63526 1.28885 8.16602 1.76389M10.166 10C8.50916 10 7.16602 8.65685 7.16602 7C7.16602 5.34315 8.50916 4 10.166 4C11.8229 4 13.166 5.34315 13.166 7C13.166 8.65685 11.8229 10 10.166 10Z" stroke="#2F3244" stroke-width="2" stroke-linecap="round" stroke-linejoin="round"/>
</svg>
