<svg width="17" height="17" viewBox="0 0 17 17" fill="none" xmlns="http://www.w3.org/2000/svg">
<path d="M1.75397 0C0.78254 0 0 0.78254 0 1.75397V3.64286V15.246C0 16.2175 0.78254 17 1.75397 17H15.246C16.2175 17 17 16.2175 17 15.246V1.75397C17 0.78254 16.2175 0 15.246 0H1.75397ZM1.75397 0.809524H15.246C15.7722 0.809524 16.1905 1.22778 16.1905 1.75397V3.77778H0.809524V1.75397C0.809524 1.22778 1.22778 0.809524 1.75397 0.809524ZM2.29365 1.88889C2.06429 1.88889 1.88889 2.06429 1.88889 2.29365C1.88889 2.52302 2.06429 2.69841 2.29365 2.69841H2.83333C3.0627 2.69841 3.2381 2.52302 3.2381 2.29365C3.2381 2.06429 3.0627 1.88889 2.83333 1.88889H2.29365ZM4.45238 1.88889C4.22302 1.88889 4.04762 2.06429 4.04762 2.29365C4.04762 2.52302 4.22302 2.69841 4.45238 2.69841H4.99206C5.22143 2.69841 5.39683 2.52302 5.39683 2.29365C5.39683 2.06429 5.22143 1.88889 4.99206 1.88889H4.45238ZM0.809524 4.5873H16.1905V15.246C16.1905 15.7722 15.7722 16.1905 15.246 16.1905H1.75397C1.22778 16.1905 0.809524 15.7722 0.809524 15.246V4.5873ZM7.27886 7.39692C7.11359 7.39692 6.94847 7.44098 6.80005 7.52868C6.53021 7.71757 6.34127 8.02778 6.34127 8.36508V12.4127C6.34127 12.75 6.53016 13.0603 6.81349 13.2357C6.96191 13.3166 7.12381 13.3571 7.28571 13.3571C7.44762 13.3571 7.62302 13.3167 7.75794 13.2222L11.239 11.1984C11.5358 11.023 11.7112 10.7128 11.7112 10.3755C11.7112 10.0381 11.5223 9.71439 11.239 9.55249L7.75794 7.52868C7.60952 7.44098 7.44414 7.39692 7.27886 7.39692ZM7.28571 8.23016C7.29921 8.23016 7.33968 8.23011 7.35318 8.2436L10.8342 10.2674C10.8747 10.2944 10.9017 10.3349 10.9017 10.3889C10.9017 10.4429 10.8747 10.4834 10.8342 10.5104L7.35318 12.5342C7.3127 12.5612 7.25878 12.5612 7.20481 12.5342C7.15085 12.5072 7.15079 12.4532 7.15079 12.4127V8.36508C7.15079 8.31111 7.17778 8.27058 7.21825 8.2436C7.24524 8.23011 7.27222 8.23016 7.28571 8.23016Z" fill="#373D54"/>
</svg>
